<svg id="Layer_1" data-name="Layer 1" xmlns="http://www.w3.org/2000/svg" viewBox="0 0 81.86 81.86"><title>bicycle</title><circle cx="40.93" cy="40.93" r="40.93" fill="#1e87f0"/><path d="M513.74,491.63c-1.51.08-2.27.74-2.27,2.19v11.64q0,5.91,0,11.82a1.82,1.82,0,0,0,.73,1.64,3.52,3.52,0,0,0,3.3.25c1-.35,1.19-1.25,1.19-2.21,0-7.5,0-15,0-22.52,0-1.92-.58-2.94-3-2.81ZM504.09,500H498a.36.36,0,0,0-.37.36v2a.37.37,0,0,0,.37.35h6.09a.37.37,0,0,0,.38-.35v-2A.37.37,0,0,0,504.09,500Zm25.46,4.93h-6.09a.36.36,0,0,0-.37.35v2a.36.36,0,0,0,.37.36h6.1a.37.37,0,0,0,.37-.36v-2a.38.38,0,0,0-.38-.35Zm-3.41-24.63a.37.37,0,0,0,.37-.35c0-1.19,0-5,0-6.23a.37.37,0,0,0-.37-.36h-9.69c-.21,0-.38-.12-.38-.26v-1a.35.35,0,0,0-.37-.35h-3.31a.35.35,0,0,0-.37.35v1s-.17.26-.37.26h-9.71a1.77,1.77,0,0,0-.37,0v6.56a.37.37,0,0,0,.37.35h3a.37.37,0,0,0,.37-.35V476a.37.37,0,0,1,.37-.36h6a.36.36,0,0,1,.37.36v2a.37.37,0,0,1-.37.35h-2.08a.36.36,0,0,0-.37.36v2a.37.37,0,0,0,.37.36h1a.35.35,0,0,1,.37.35c0,1.51,0,3,0,4.45a.85.85,0,0,1-.28.48c-1.33,1.27-2.69,2.53-4,3.82a1.32,1.32,0,0,0-.37.83c0,4.42,0,8.84,0,13.27,0,.1,0,.19,0,.3a.36.36,0,0,0,.38.3h2.66a.36.36,0,0,0,.37-.33v-.33c0-4,0-8.07,0-12.1a1.1,1.1,0,0,1,.39-.91,23.71,23.71,0,0,0,2.1-2,2.41,2.41,0,0,1,2.42-.91,1.46,1.46,0,0,1,.72.3c.91.85,1.77,1.75,2.69,2.6a1.26,1.26,0,0,1,.42,1q0,6,0,12v.35s.17.35.38.35h2.67c.21,0,.38-.11.4-.24a2,2,0,0,0,0-.24q0-6.75,0-13.5a1.18,1.18,0,0,0-.36-.74c-1.26-1.26-2.56-2.48-3.83-3.72-.15-.15-.34-.34-.35-.51,0-1.49,0-3,0-4.53a.37.37,0,0,1,.37-.35h.94a.36.36,0,0,0,.37-.36v-2a.37.37,0,0,0-.37-.35h-2.09a.36.36,0,0,1-.37-.36v-2a.37.37,0,0,1,.37-.35h6a.37.37,0,0,1,.37.35v3.95a.37.37,0,0,0,.37.35Z" transform="translate(-472.85 -454.66)" fill="#fff"/></svg>