<svg id="Layer_1" data-name="Layer 1" xmlns="http://www.w3.org/2000/svg" viewBox="0 0 81.86 81.86"><title>cycling</title><circle cx="40.93" cy="40.93" r="40.93" fill="#1e87f0"/><path d="M505.84,413.13h-.2l-.78-6.2a1.92,1.92,0,0,0-.38-.87c0-.06-.1-.13-.1-.13a1.33,1.33,0,0,0-.87-.44L492,399.69l1.31-1.83-5.5-4L476,410.2l1.61,1.15h-2.46v1.9a11.75,11.75,0,0,0-1.58-.12,11,11,0,1,0,11.05,11,10.62,10.62,0,0,0-.18-1.89l4.2-1.74v8.27h5V418.46l3.87-1.6a10.91,10.91,0,0,0-2.78,7.31,11,11,0,1,0,11-11Zm-16.35-10,12.73,6.41H484.87l4.62-6.41Zm12.07,9.13L493,415.8l-4.59-3.55Zm-22.36,1.34-.47.8a10.56,10.56,0,0,0-2-.8Zm3.45,10.58a9,9,0,1,1-9-9,8.93,8.93,0,0,1,4.08,1l-4.89,8.31a.21.21,0,0,1,0,.1,1.83,1.83,0,0,0-.08.25,2.38,2.38,0,0,0-.05.26,1,1,0,0,0,0,.24,1.26,1.26,0,0,0,.05.28.38.38,0,0,1,0,.1,1.25,1.25,0,0,0,.08.12,1,1,0,0,0,.17.23.81.81,0,0,0,.19.18c.05,0,.07.08.12.1l.1,0a1.44,1.44,0,0,0,.25.08.85.85,0,0,0,.26.05,1,1,0,0,0,.25,0l.28-.06.09,0,8-3.32a9.81,9.81,0,0,1,.11,1.09Zm-.83-3.74-4.6,1.9,2.71-4.6A9.32,9.32,0,0,1,481.82,420.43ZM481,416l.89-1.51,5,3.89-3.22,1.33A11,11,0,0,0,481,416Zm24.86,17.26a9,9,0,0,1-2.75-17.6l1.08,8.54a1.43,1.43,0,1,0,2.81-.35l-1.09-8.66a9,9,0,0,1-.05,18.07Zm-12.57-37.46a5.32,5.32,0,1,0-5.32-5.31A5.32,5.32,0,0,0,493.27,395.75Zm1.17,33.44h-5a1.51,1.51,0,1,0,0,3h5a1.51,1.51,0,0,0,0-3Z" transform="translate(-448.79 -369.23)" fill="#fff"/></svg>