<svg id="Layer_1" data-name="Layer 1" xmlns="http://www.w3.org/2000/svg" viewBox="0 0 81.86 81.86"><title>heart-beat</title><circle cx="40.93" cy="40.93" r="40.93" fill="#1e87f0"/><path d="M513.63,428.74l-7,5.78c-1.87-2.68-3.54-5.1-5.5-7.94-2.25,3.94-4.22,7.41-6.4,11.27l-6.25-9.72c-2,.82-3.71,1.91-5.78,2.29a18.86,18.86,0,0,1-3.81.19,34.63,34.63,0,0,0,4.41,5.83,68,68,0,0,0,16.58,12.68.81.81,0,0,0,.68,0c1.2-.69,2.4-1.39,3.59-2.15a60,60,0,0,0,14.26-12,32.76,32.76,0,0,0,3.12-4.36c-3.86.29-5.84-.22-7.89-1.8Zm7.31-16.9a13.19,13.19,0,0,0-17.4-.94,13.76,13.76,0,0,0-3.35,4c-.08-.11-.13-.14-.14-.19-3.08-5.06-7.62-7.28-13.44-6.47a12.22,12.22,0,0,0-9.91,7.56,13.19,13.19,0,0,0-.08,10c.26.71.54,1.41.86,2.07,5.27.58,8.43-1.77,11.68-4.18l5.56,7.33c2.15-4,4.14-7.74,6.39-11.95,2.22,3.71,4.18,7,6.36,10.6l6.65-5.36c1.53,3.08,4.79,3.78,8.8,3.56a22.16,22.16,0,0,0,1.12-3c1.4-4.92.5-9.31-3.1-13Z" transform="translate(-459.07 -384.07)" fill="#fff"/></svg>