<svg id="Layer_1" data-name="Layer 1" xmlns="http://www.w3.org/2000/svg" viewBox="0 0 81.86 81.86"><title>map-pins</title><circle cx="40.93" cy="40.93" r="40.93" fill="#1e87f0"/><path d="M443.56,551a40.2,40.2,0,0,0,5.17-8.14,8.2,8.2,0,0,0,.84-3.4,9.09,9.09,0,0,0-11.74-8.5c-4.69,1.45-8,7-5.45,12a47.45,47.45,0,0,0,3.2,5.41c1.5,2.18,3.19,4.22,4.89,6.44,1.12-1.37,2.13-2.57,3.09-3.8Zm-6.2-11.47a3.23,3.23,0,0,1,3.2-3.15,3.17,3.17,0,1,1-3.2,3.15Zm43.77,18.59a9.11,9.11,0,0,0-11.25-7.56c-4.68,1.2-8.72,6.85-5.65,12.65a53,53,0,0,0,5.25,8c.86,1.08,1.75,2.14,2.67,3.25a61.7,61.7,0,0,0,5.94-7.76,44.66,44.66,0,0,0,2.42-4.46A7.15,7.15,0,0,0,481.13,558.14Zm-9,4.32a3.17,3.17,0,1,1,3.17-3.17,3.21,3.21,0,0,1-3.17,3.17Zm-13,13-2.75-.19a1.19,1.19,0,1,0-.15,2.36c.79.07,1.58.1,2.37.15H459a1.2,1.2,0,0,0,1.37-1.12,1.19,1.19,0,0,0-1.23-1.21Zm-14.87-1.82c-.87-.24-1.73-.5-2.59-.75a2.38,2.38,0,0,0-.41-.08,1.17,1.17,0,0,0-1.21.87,1.15,1.15,0,0,0,.78,1.4c.94.32,1.89.58,2.85.84a1.16,1.16,0,0,0,1.55-.81,1.19,1.19,0,0,0-1-1.47Zm7.52,1.25c-1-.16-2.07-.27-3.11-.4a1.14,1.14,0,0,0-1.24,1,1.12,1.12,0,0,0,1,1.31c1,.16,2,.29,3.07.41a1.17,1.17,0,0,0,.31-2.32Zm.52-12q-1.56.38-3.09.84a1.14,1.14,0,0,0-.76,1.36,1.34,1.34,0,0,0,1.19,1c1.16-.34,2.33-.66,3.47-1.06a1.07,1.07,0,0,0,.53-1.36,1.09,1.09,0,0,0-1.34-.77Zm-7.26,1.78c-1.13.24-2.25.54-3.36.89a1.07,1.07,0,0,0-.62,1.32,1.21,1.21,0,0,0,1.31.87c1-.27,2.18-.55,3.33-.93a1.14,1.14,0,0,0-.66-2.15Zm11.62-3.76a4.16,4.16,0,0,0-2.59-3.12,1.08,1.08,0,0,0-.69,0,1.06,1.06,0,0,0-.85.9,1.13,1.13,0,0,0,.55,1.23,2.35,2.35,0,0,1,1.34,1.63,1,1,0,0,0,1,.79,1.19,1.19,0,0,0,1.23-1.4Zm-6.2-3.08a1.17,1.17,0,0,0-1.14-1.34c-.85-.1-1.71-.18-2.43-.25h-.3c-.91,0-1.44.37-1.47,1.11s.42,1.16,1.31,1.23,1.72.15,2.58.25a1.21,1.21,0,0,0,1.45-1ZM467,575.77a31.35,31.35,0,0,0-3.36,0,1.07,1.07,0,0,0-1.05,1.23A1.15,1.15,0,0,0,463.8,578c.5,0,1,0,1.49,0v0h.77a6.78,6.78,0,0,0,.78,0A1.2,1.2,0,0,0,468,577a1.15,1.15,0,0,0-1-1.22Zm-29.64-7.89a4,4,0,0,0-1.14,2.94,8.48,8.48,0,0,0,.3,1.07,1.14,1.14,0,0,0,1.4.67,1.1,1.1,0,0,0,.78-1.38,1.73,1.73,0,0,1,.42-1.77,1.15,1.15,0,0,0-.11-1.59,1.2,1.2,0,0,0-1.65.06Zm35.82,7.9a11.68,11.68,0,0,0-1.87,0,1.16,1.16,0,0,0-1,1.21,1.2,1.2,0,0,0,1.13,1.14c.27,0,.55,0,.83,0h0a8.61,8.61,0,0,0,.88,0,1.18,1.18,0,0,0,1.1-1.16A1.16,1.16,0,0,0,473.21,575.78ZM441,558.47c.33,0,.66,0,1,0a1.16,1.16,0,0,0,0-2.3c-.63,0-1.25,0-1.88,0a1.16,1.16,0,0,0,0,2.3C440.33,558.5,440.64,558.47,441,558.47Z" transform="translate(-415.42 -513.43)" fill="#fff"/></svg>