<svg id="Layer_1" data-name="Layer 1" xmlns="http://www.w3.org/2000/svg" viewBox="0 0 81.86 81.86"><title>muscle</title><circle cx="40.93" cy="40.93" r="40.93" fill="#1e87f0"/><path d="M521.93,504.25a4.54,4.54,0,0,0-.84-1.4,29.16,29.16,0,0,0-3.66-8.3c-2.89-4.61-10.53-12-13.43-13.18a2.43,2.43,0,0,0-.39-.12,2.36,2.36,0,0,0-1.47-1.83c-3.37-1.6-6.68-3.16-9-2.21s-3.58,2.41-1.1,8c2.35,1.72,7-1.74,8.51.47s3.14,9.6,5.87,14.33a16.71,16.71,0,0,0-2.14-.15,13.62,13.62,0,0,0-8,2.4,9.62,9.62,0,0,0-17.45,2.86h-.41L478.7,525l4.92-.08,1.79-3.17c3.1-1.19,6.77-4.27,9.32-7.54a84.39,84.39,0,0,0,9.58.79c1.9,0,9.09-.84,11.15-1.59,4.79-1.76,7.69-5.86,6.47-9.18Z" transform="translate(-459.4 -460.04)" fill="#fff"/></svg>